<svg width="64" height="64" viewBox="0 0 64 64" fill="none" xmlns="http://www.w3.org/2000/svg">
  <rect width="64" height="64" rx="16" fill="#FFF1F7"/>
  <path d="M22 46C13.5 39.8 10 34 10 28.5C10 20.8 15.6 15 23 15C27 15 30.4 17 32 20C33.6 17 37 15 41 15C48.4 15 54 20.8 54 28.5C54 34 50.5 39.8 42 46L32 53L22 46Z" fill="#F72585"/>
  <path d="M29 27H35.6C39 27 41 28.9 41 31.7C41 34.7 38.7 36.6 35.4 36.6H29V27ZM33 33.4H35.1C36.3 33.4 37 32.8 37 31.8C37 30.7 36.3 30.2 35.1 30.2H33V33.4Z" fill="#fff"/>
</svg>
